<svg id="visual" viewBox="0 0 900 300" width="900" height="300" xmlns="http://www.w3.org/2000/svg" xmlns:xlink="http://www.w3.org/1999/xlink" version="1.1"><path d="M0 151L12.5 155.7C25 160.3 50 169.7 75 172.2C100 174.7 125 170.3 150 171.8C175 173.3 200 180.7 225 184.3C250 188 275 188 300 173.8C325 159.7 350 131.3 375 125C400 118.7 425 134.3 450 148.5C475 162.7 500 175.3 525 177.7C550 180 575 172 600 170.3C625 168.7 650 173.3 675 167.7C700 162 725 146 750 146C775 146 800 162 825 168.5C850 175 875 172 887.5 170.5L900 169L900 0L887.5 0C875 0 850 0 825 0C800 0 775 0 750 0C725 0 700 0 675 0C650 0 625 0 600 0C575 0 550 0 525 0C500 0 475 0 450 0C425 0 400 0 375 0C350 0 325 0 300 0C275 0 250 0 225 0C200 0 175 0 150 0C125 0 100 0 75 0C50 0 25 0 12.5 0L0 0Z" fill="#de9e36"></path><path d="M0 116L12.5 116.2C25 116.3 50 116.7 75 119.3C100 122 125 127 150 133.8C175 140.7 200 149.3 225 152.5C250 155.7 275 153.3 300 153.3C325 153.3 350 155.7 375 152.2C400 148.7 425 139.3 450 127.5C475 115.7 500 101.3 525 99.8C550 98.3 575 109.7 600 109.7C625 109.7 650 98.3 675 92.8C700 87.3 725 87.7 750 95.7C775 103.7 800 119.3 825 131.5C850 143.7 875 152.3 887.5 156.7L900 161L900 0L887.5 0C875 0 850 0 825 0C800 0 775 0 750 0C725 0 700 0 675 0C650 0 625 0 600 0C575 0 550 0 525 0C500 0 475 0 450 0C425 0 400 0 375 0C350 0 325 0 300 0C275 0 250 0 225 0C200 0 175 0 150 0C125 0 100 0 75 0C50 0 25 0 12.5 0L0 0Z" fill="#bf9e31"></path><path d="M0 112L12.5 106.3C25 100.7 50 89.3 75 91.5C100 93.7 125 109.3 150 107.7C175 106 200 87 225 86.3C250 85.7 275 103.3 300 110.2C325 117 350 113 375 104.7C400 96.3 425 83.7 450 81.3C475 79 500 87 525 88C550 89 575 83 600 82.7C625 82.3 650 87.7 675 94.5C700 101.3 725 109.7 750 106C775 102.3 800 86.7 825 90.3C850 94 875 117 887.5 128.5L900 140L900 0L887.5 0C875 0 850 0 825 0C800 0 775 0 750 0C725 0 700 0 675 0C650 0 625 0 600 0C575 0 550 0 525 0C500 0 475 0 450 0C425 0 400 0 375 0C350 0 325 0 300 0C275 0 250 0 225 0C200 0 175 0 150 0C125 0 100 0 75 0C50 0 25 0 12.5 0L0 0Z" fill="#a19d33"></path><path d="M0 103L12.5 102.7C25 102.3 50 101.7 75 98.2C100 94.7 125 88.3 150 82.7C175 77 200 72 225 75.8C250 79.7 275 92.3 300 90.7C325 89 350 73 375 71.8C400 70.7 425 84.3 450 89C475 93.7 500 89.3 525 85C550 80.7 575 76.3 600 75C625 73.7 650 75.3 675 72C700 68.7 725 60.3 750 61.3C775 62.3 800 72.7 825 73.8C850 75 875 67 887.5 63L900 59L900 0L887.5 0C875 0 850 0 825 0C800 0 775 0 750 0C725 0 700 0 675 0C650 0 625 0 600 0C575 0 550 0 525 0C500 0 475 0 450 0C425 0 400 0 375 0C350 0 325 0 300 0C275 0 250 0 225 0C200 0 175 0 150 0C125 0 100 0 75 0C50 0 25 0 12.5 0L0 0Z" fill="#84993b"></path><path d="M0 68L12.5 67.7C25 67.3 50 66.7 75 65C100 63.3 125 60.7 150 58.8C175 57 200 56 225 57C250 58 275 61 300 65.7C325 70.3 350 76.7 375 72.5C400 68.3 425 53.7 450 54.3C475 55 500 71 525 74.3C550 77.7 575 68.3 600 60.5C625 52.7 650 46.3 675 50.5C700 54.7 725 69.3 750 69.2C775 69 800 54 825 49.2C850 44.3 875 49.7 887.5 52.3L900 55L900 0L887.5 0C875 0 850 0 825 0C800 0 775 0 750 0C725 0 700 0 675 0C650 0 625 0 600 0C575 0 550 0 525 0C500 0 475 0 450 0C425 0 400 0 375 0C350 0 325 0 300 0C275 0 250 0 225 0C200 0 175 0 150 0C125 0 100 0 75 0C50 0 25 0 12.5 0L0 0Z" fill="#699445"></path><path d="M0 58L12.5 54C25 50 50 42 75 37C100 32 125 30 150 29.8C175 29.7 200 31.3 225 32.2C250 33 275 33 300 37.8C325 42.7 350 52.3 375 55.3C400 58.3 425 54.7 450 49.2C475 43.7 500 36.3 525 36.3C550 36.3 575 43.7 600 43.8C625 44 650 37 675 33.3C700 29.7 725 29.3 750 32.8C775 36.3 800 43.7 825 43C850 42.3 875 33.7 887.5 29.3L900 25L900 0L887.5 0C875 0 850 0 825 0C800 0 775 0 750 0C725 0 700 0 675 0C650 0 625 0 600 0C575 0 550 0 525 0C500 0 475 0 450 0C425 0 400 0 375 0C350 0 325 0 300 0C275 0 250 0 225 0C200 0 175 0 150 0C125 0 100 0 75 0C50 0 25 0 12.5 0L0 0Z" fill="#508d4f"></path><path d="M0 14L12.5 14.7C25 15.3 50 16.7 75 19.3C100 22 125 26 150 27C175 28 200 26 225 23.2C250 20.3 275 16.7 300 18.5C325 20.3 350 27.7 375 27.3C400 27 425 19 450 14.8C475 10.7 500 10.3 525 12.5C550 14.7 575 19.3 600 21.8C625 24.3 650 24.7 675 25.2C700 25.7 725 26.3 750 28.7C775 31 800 35 825 37.3C850 39.7 875 40.3 887.5 40.7L900 41L900 0L887.5 0C875 0 850 0 825 0C800 0 775 0 750 0C725 0 700 0 675 0C650 0 625 0 600 0C575 0 550 0 525 0C500 0 475 0 450 0C425 0 400 0 375 0C350 0 325 0 300 0C275 0 250 0 225 0C200 0 175 0 150 0C125 0 100 0 75 0C50 0 25 0 12.5 0L0 0Z" fill="#388659"></path></svg>