<svg id="visual" viewBox="0 0 900 200" width="900" height="200" xmlns="http://www.w3.org/2000/svg" xmlns:xlink="http://www.w3.org/1999/xlink" version="1.1"><path d="M0 153L16.7 148C33.3 143 66.7 133 100 122.3C133.3 111.7 166.7 100.3 200 100.3C233.3 100.3 266.7 111.7 300 115.7C333.3 119.7 366.7 116.3 400 116C433.3 115.7 466.7 118.3 500 116.2C533.3 114 566.7 107 600 111.3C633.3 115.7 666.7 131.3 700 132.8C733.3 134.3 766.7 121.7 800 114.3C833.3 107 866.7 105 883.3 104L900 103L900 201L883.3 201C866.7 201 833.3 201 800 201C766.7 201 733.3 201 700 201C666.7 201 633.3 201 600 201C566.7 201 533.3 201 500 201C466.7 201 433.3 201 400 201C366.7 201 333.3 201 300 201C266.7 201 233.3 201 200 201C166.7 201 133.3 201 100 201C66.7 201 33.3 201 16.7 201L0 201Z" fill="#de9e36" stroke-linecap="round" stroke-linejoin="miter"></path></svg>