<svg id="visual" viewBox="0 0 900 200" width="900" height="200" xmlns="http://www.w3.org/2000/svg" xmlns:xlink="http://www.w3.org/1999/xlink" version="1.1"><path d="M0 139L13.7 136.8C27.3 134.7 54.7 130.3 82 131.3C109.3 132.3 136.7 138.7 163.8 135.5C191 132.3 218 119.7 245.2 112.2C272.3 104.7 299.7 102.3 327 100.7C354.3 99 381.7 98 409 103.7C436.3 109.3 463.7 121.7 491 127C518.3 132.3 545.7 130.7 573 123.8C600.3 117 627.7 105 654.8 103C682 101 709 109 736.2 114.2C763.3 119.3 790.7 121.7 818 116.2C845.3 110.7 872.7 97.3 886.3 90.7L900 84L900 0L886.3 0C872.7 0 845.3 0 818 0C790.7 0 763.3 0 736.2 0C709 0 682 0 654.8 0C627.7 0 600.3 0 573 0C545.7 0 518.3 0 491 0C463.7 0 436.3 0 409 0C381.7 0 354.3 0 327 0C299.7 0 272.3 0 245.2 0C218 0 191 0 163.8 0C136.7 0 109.3 0 82 0C54.7 0 27.3 0 13.7 0L0 0Z" fill="#388659"></path><path d="M0 105L13.7 100.8C27.3 96.7 54.7 88.3 82 91.3C109.3 94.3 136.7 108.7 163.8 116C191 123.3 218 123.7 245.2 120C272.3 116.3 299.7 108.7 327 103.3C354.3 98 381.7 95 409 95C436.3 95 463.7 98 491 99.3C518.3 100.7 545.7 100.3 573 103C600.3 105.7 627.7 111.3 654.8 107.2C682 103 709 89 736.2 83C763.3 77 790.7 79 818 82.2C845.3 85.3 872.7 89.7 886.3 91.8L900 94L900 0L886.3 0C872.7 0 845.3 0 818 0C790.7 0 763.3 0 736.2 0C709 0 682 0 654.8 0C627.7 0 600.3 0 573 0C545.7 0 518.3 0 491 0C463.7 0 436.3 0 409 0C381.7 0 354.3 0 327 0C299.7 0 272.3 0 245.2 0C218 0 191 0 163.8 0C136.7 0 109.3 0 82 0C54.7 0 27.3 0 13.7 0L0 0Z" fill="#5e9a74"></path><path d="M0 101L13.7 100C27.3 99 54.7 97 82 92.2C109.3 87.3 136.7 79.7 163.8 78.7C191 77.7 218 83.3 245.2 87C272.3 90.7 299.7 92.3 327 91C354.3 89.7 381.7 85.3 409 82.2C436.3 79 463.7 77 491 74.2C518.3 71.3 545.7 67.7 573 68.7C600.3 69.7 627.7 75.3 654.8 79.5C682 83.7 709 86.3 736.2 86.7C763.3 87 790.7 85 818 86C845.3 87 872.7 91 886.3 93L900 95L900 0L886.3 0C872.7 0 845.3 0 818 0C790.7 0 763.3 0 736.2 0C709 0 682 0 654.8 0C627.7 0 600.3 0 573 0C545.7 0 518.3 0 491 0C463.7 0 436.3 0 409 0C381.7 0 354.3 0 327 0C299.7 0 272.3 0 245.2 0C218 0 191 0 163.8 0C136.7 0 109.3 0 82 0C54.7 0 27.3 0 13.7 0L0 0Z" fill="#82ae91"></path><path d="M0 70L13.7 66.3C27.3 62.7 54.7 55.3 82 51.2C109.3 47 136.7 46 163.8 50.2C191 54.3 218 63.7 245.2 66.2C272.3 68.7 299.7 64.3 327 65.7C354.3 67 381.7 74 409 74.3C436.3 74.7 463.7 68.3 491 66.2C518.3 64 545.7 66 573 69C600.3 72 627.7 76 654.8 73.8C682 71.7 709 63.3 736.2 58C763.3 52.7 790.7 50.3 818 53.5C845.3 56.7 872.7 65.3 886.3 69.7L900 74L900 0L886.3 0C872.7 0 845.3 0 818 0C790.7 0 763.3 0 736.2 0C709 0 682 0 654.8 0C627.7 0 600.3 0 573 0C545.7 0 518.3 0 491 0C463.7 0 436.3 0 409 0C381.7 0 354.3 0 327 0C299.7 0 272.3 0 245.2 0C218 0 191 0 163.8 0C136.7 0 109.3 0 82 0C54.7 0 27.3 0 13.7 0L0 0Z" fill="#a4c2ae"></path><path d="M0 55L13.7 51.8C27.3 48.7 54.7 42.3 82 41.5C109.3 40.7 136.7 45.3 163.8 44.5C191 43.7 218 37.3 245.2 36C272.3 34.7 299.7 38.3 327 38C354.3 37.7 381.7 33.3 409 31.2C436.3 29 463.7 29 491 31.2C518.3 33.3 545.7 37.7 573 37.5C600.3 37.3 627.7 32.7 654.8 33.2C682 33.7 709 39.3 736.2 44.3C763.3 49.3 790.7 53.7 818 52.3C845.3 51 872.7 44 886.3 40.5L900 37L900 0L886.3 0C872.7 0 845.3 0 818 0C790.7 0 763.3 0 736.2 0C709 0 682 0 654.8 0C627.7 0 600.3 0 573 0C545.7 0 518.3 0 491 0C463.7 0 436.3 0 409 0C381.7 0 354.3 0 327 0C299.7 0 272.3 0 245.2 0C218 0 191 0 163.8 0C136.7 0 109.3 0 82 0C54.7 0 27.3 0 13.7 0L0 0Z" fill="#c8d7cc"></path><path d="M0 18L13.7 18.3C27.3 18.7 54.7 19.3 82 19C109.3 18.7 136.7 17.3 163.8 16.5C191 15.7 218 15.3 245.2 16.8C272.3 18.3 299.7 21.7 327 24.2C354.3 26.7 381.7 28.3 409 30.2C436.3 32 463.7 34 491 32C518.3 30 545.7 24 573 23.5C600.3 23 627.7 28 654.8 30.2C682 32.3 709 31.7 736.2 28.8C763.3 26 790.7 21 818 20.5C845.3 20 872.7 24 886.3 26L900 28L900 0L886.3 0C872.7 0 845.3 0 818 0C790.7 0 763.3 0 736.2 0C709 0 682 0 654.8 0C627.7 0 600.3 0 573 0C545.7 0 518.3 0 491 0C463.7 0 436.3 0 409 0C381.7 0 354.3 0 327 0C299.7 0 272.3 0 245.2 0C218 0 191 0 163.8 0C136.7 0 109.3 0 82 0C54.7 0 27.3 0 13.7 0L0 0Z" fill="#ebebeb"></path></svg>